<svg xmlns="http://www.w3.org/2000/svg" width="512" height="512"><style>.B{stroke-width:1.51}.C{fill:#053061}.D{stroke:#053061}.E{fill:#8a8095}.F{stroke:#8a8095}.G{fill:#4c213f}.H{stroke:#4c213f}.I{fill:#828ba9}.J{stroke:#828ba9}.K{fill:#7385a7}.L{stroke:#7385a7}.M{fill:#235b8e}.N{stroke:#235b8e}.O{fill:#195088}.P{stroke:#195088}.Q{fill:#083669}.R{stroke:#083669}.S{fill:#5f2743}.T{stroke:#5f2743}.U{fill:#647ea2}.V{stroke:#647ea2}.W{fill:#858aa6}.X{stroke:#858aa6}.Y{fill:#89849b}.Z{stroke:#89849b}.a{fill:#406c98}.b{stroke:#406c98}.c{fill:#296091}.d{stroke:#296091}.e{fill:#855867}.f{stroke:#855867}.g{fill:#134a86}.h{stroke:#134a86}.i{fill:#0c3d73}.j{stroke:#0c3d73}.k{fill:#7d4255}.l{stroke:#7d4255}.m{fill:#722d47}.n{stroke:#722d47}.o{fill:#71546c}.p{stroke:#71546c}.q{fill:#542441}.r{stroke:#542441}</style><g fill="#dae9f2" stroke="#dae9f2" class="B"><path d="M277 276l38 38 1-39z"/><path d="M277 276l-1 40 39-2z"/></g><path fill="#e8f0f4" stroke="#e8f0f4" d="M316 275l-39-39v40z" class="B"/><path fill="#e4eef4" stroke="#e4eef4" d="M277 276l-41 37 40 3z" class="B"/><path fill="#c3ddec" stroke="#c3ddec" d="M356 314v-38l-40-1z" class="B"/><path fill="#e6edf1" stroke="#e6edf1" d="M316 275l-1-41-38 2z" class="B"/><path fill="#c7dfed" stroke="#c7dfed" d="M315 314h41l-40-39z" class="B"/><path fill="#b0d3e7" stroke="#b0d3e7" d="M356 354v-40h-41z" class="B"/><path fill="#d9e5ed" stroke="#d9e5ed" d="M353 236l-38-2 1 41z" class="B"/><path fill="#cbe1ee" stroke="#cbe1ee" d="M276 316l1 38 38-40z" class="B"/><path fill="#ecf0f2" stroke="#ecf0f2" d="M236 275v38l41-37z" class="B"/><path fill="#cde2ed" stroke="#cde2ed" d="M276 316l-41 39 42-1z" class="B"/><path fill="#f2f5f6" stroke="#f2f5f6" d="M277 236l-41 39 41 1z" class="B"/><path fill="#bedbea" stroke="#bedbea" d="M277 354l40 2-2-42z" class="B"/><path fill="#cde2ed" stroke="#cde2ed" d="M356 276l-3-40-37 39z" class="B"/><path fill="#afd3e6" stroke="#afd3e6" d="M317 356l39-2-41-40z" class="B"/><path fill="#f8f3f0" stroke="#f8f3f0" d="M277 236l-42-1 1 40z" class="B"/><path fill="#eee9e5" stroke="#eee9e5" d="M236 275l-39 1 39 37z" class="B"/><path fill="#faece4" stroke="#faece4" d="M237 198l-2 37 42 1z" class="B"/><path fill="#d9e5ed" stroke="#d9e5ed" d="M236 313l-1 42 41-39z" class="B"/><path fill="#aed0e5" stroke="#aed0e5" d="M277 354l38 40 2-38z" class="B"/><path fill="#dcdfe1" stroke="#dcdfe1" d="M197 314l38 41 1-42z" class="B"/><path fill="#bed8e8" stroke="#bed8e8" d="M356 276l37-1-40-39z" class="B"/><path fill="#b3d3e6" stroke="#b3d3e6" d="M356 314l37-39-37 1z" class="B"/><path fill="#a5cae2" stroke="#a5cae2" d="M396 315l-3-40-37 39z" class="B"/><path fill="#eee8e4" stroke="#eee8e4" d="M315 234l-39-38 1 40z" class="B"/><path fill="#dcdada" stroke="#dcdada" d="M356 197l-41-1v38z" class="B"/><path fill="#d4dbde" stroke="#d4dbde" d="M356 197l-41 37 38 2z" class="B"/><path fill="#eae2de" stroke="#eae2de" d="M315 196h-39l39 38z" class="B"/><path fill="#96c3de" stroke="#96c3de" d="M393 353l3-38-40-1z" class="B"/><path fill="#f8ede7" stroke="#f8ede7" d="M235 235l-38 41 39-1z" class="B"/><path fill="#abcde3" stroke="#abcde3" d="M275 395l40-1-38-40z" class="B"/><path fill="#96c5df" stroke="#96c5df" d="M317 356l38 38 1-40z" class="B"/><path fill="#97c5df" stroke="#97c5df" d="M356 354l37-1-37-39z" class="B"/><path fill="#ebe3de" stroke="#ebe3de" d="M197 276v38l39-1z" class="B"/><path fill="#b5d1e4" stroke="#b5d1e4" d="M236 393l39 2 2-41z" class="B"/><path fill="#7db6d6" stroke="#7db6d6" d="M393 393v-40l-37 1z" class="B"/><path fill="#fbe8dd" stroke="#fbe8dd" d="M235 235h-40l2 41z" class="B"/><path fill="#f8e9e1" stroke="#f8e9e1" d="M276 196l-39 2 40 38z" class="B"/><path fill="#c4d0d9" stroke="#c4d0d9" d="M396 235l-40-38-3 39z" class="B"/><path fill="#b9d1e1" stroke="#b9d1e1" d="M393 275l3-40-43 1z" class="B"/><path fill="#a4c4dd" stroke="#a4c4dd" d="M435 274l-39-39-3 40z" class="B"/><path fill="#96c2dd" stroke="#96c2dd" d="M315 394h40l-38-38z" class="B"/><path fill="#7cb2d4" stroke="#7cb2d4" d="M354 433l1-39h-40z" class="B"/><path fill="#c1d7e5" stroke="#c1d7e5" d="M235 355l1 38 41-39z" class="B"/><path fill="#bdcad5" stroke="#bdcad5" d="M198 394l38-1-1-38z" class="B"/><path fill="#fde1d1" stroke="#fde1d1" d="M197 197l-2 38h40z" class="B"/><path fill="#f0d8ce" stroke="#f0d8ce" d="M197 276l-40 1 40 37z" class="B"/><path fill="#d5d6d8" stroke="#d5d6d8" d="M197 314l-1 42 39-1z" class="B"/><path fill="#d6cac7" stroke="#d6cac7" d="M156 356h40l1-42z" class="B"/><path fill="#bdc6cf" stroke="#bdc6cf" d="M396 235l-3-38h-37z" class="B"/><path fill="#dec8c0" stroke="#dec8c0" d="M355 157l-40 1v38z" class="B"/><path fill="#ebd6cd" stroke="#ebd6cd" d="M315 196v-38l-39 38z" class="B"/><path fill="#fbdccd" stroke="#fbdccd" d="M276 196l-39-41v43z" class="B"/><path fill="#d6cac7" stroke="#d6cac7" d="M355 157l-40 39 41 1z" class="B"/><path fill="#94bddb" stroke="#94bddb" d="M396 315l37-1-40-39z" class="B"/><path fill="#adb8c8" stroke="#adb8c8" d="M396 235l37-40-40 2z" class="B"/><path fill="#80b0d4" stroke="#80b0d4" d="M433 354v-40l-37 1z" class="B"/><path fill="#7cb2d4" stroke="#7cb2d4" d="M433 354l-37-39-3 38z" class="B"/><path fill="#7cb5d5" stroke="#7cb5d5" d="M355 394l38-1-37-39z" class="B"/><path fill="#fde1d2" stroke="#fde1d2" d="M237 198l-40-1 38 38z" class="B"/><path fill="#fcd1bb" stroke="#fcd1bb" d="M196 158l1 39 40 1z" class="B"/><path fill="#96b9d9" stroke="#96b9d9" d="M433 314l2-40-42 1z" class="B"/><path fill="#efd1c5" stroke="#efd1c5" d="M315 158l-39-2v40z" class="B"/><path fill="#95b8d9" stroke="#95b8d9" d="M276 435h39l-40-40z" class="B"/><path fill="#c5cdd3" stroke="#c5cdd3" d="M196 356l2 38 37-39z" class="B"/><path fill="#f8dccf" stroke="#f8dccf" d="M195 235l-38 42 40-1z" class="B"/><path fill="#bfbabf" stroke="#bfbabf" d="M196 356l-38 38h40z" class="B"/><path fill="#fad4c3" stroke="#fad4c3" d="M157 235v42l38-42z" class="B"/><path fill="#94bddb" stroke="#94bddb" d="M275 395l40 40v-41z" class="B"/><path fill="#5fa2cb" stroke="#5fa2cb" d="M355 394l38 40v-41z" class="B"/><path fill="#a0bdda" stroke="#a0bdda" d="M276 435l-1-40-39 39z" class="B"/><path fill="#ebcfc4" stroke="#ebcfc4" d="M157 277l-1 36 41 1z" class="B"/><path fill="#a7c3da" stroke="#a7c3da" d="M236 434l39-39-39-2z" class="B"/><path fill="#a4bcd7" stroke="#a4bcd7" d="M435 274l-3-39h-36z" class="B"/><path fill="#8fadd3" stroke="#8fadd3" d="M433 314l41-38-39-2z" class="B"/><path fill="#6aa9d0" stroke="#6aa9d0" d="M393 393l40-39-40-1z" class="B"/><path fill="#c7c0c2" stroke="#c7c0c2" d="M393 197l-38-40 1 40z" class="B"/><path fill="#e9c0b3" stroke="#e9c0b3" d="M315 158v-41l-39 39z" class="B"/><path fill="#c0b3b5" stroke="#c0b3b5" d="M393 155l-38 2 38 40z" class="B"/><path fill="#80b0d4" stroke="#80b0d4" d="M315 435l39-2-39-39z" class="B"/><path fill="#5b9dc9" stroke="#5b9dc9" d="M393 393h41l-1-39z" class="B"/><path fill="#f5c6b4" stroke="#f5c6b4" d="M275 117l-38 38 39 1z" class="B"/><path fill="#f8d5c5" stroke="#f8d5c5" d="M276 156l-39-1 39 41z" class="B"/><path fill="#fcd1ba" stroke="#fcd1ba" d="M156 197l39 38 2-38z" class="B"/><path fill="#fbcdb7" stroke="#fbcdb7" d="M156 197l1 38h38z" class="B"/><path fill="#edc2b4" stroke="#edc2b4" d="M157 277l-39-3 38 39z" class="B"/><path fill="#acbccf" stroke="#acbccf" d="M198 394l38 40v-41z" class="B"/><path fill="#dec7c0" stroke="#dec7c0" d="M156 313v43l41-42z" class="B"/><path fill="#a9b2c6" stroke="#a9b2c6" d="M198 394l-2 41 40-1z" class="B"/><path fill="#a8b5cb" stroke="#a8b5cb" d="M432 235l1-40-37 40z" class="B"/><path fill="#a3a6c0" stroke="#a3a6c0" d="M472 196l-39-1-1 40z" class="B"/><path fill="#dcb9b0" stroke="#dcb9b0" d="M355 157l-40-40v41z" class="B"/><path fill="#b0acb7" stroke="#b0acb7" d="M433 195l-40-40v42z" class="B"/><path fill="#4490c1" stroke="#4490c1" d="M433 432l1-39h-41z" class="B"/><path fill="#86a4cf" stroke="#86a4cf" d="M474 315v-39l-41 38z" class="B"/><path fill="#fbceb8" stroke="#fbceb8" d="M237 155l-41 3 41 40z" class="B"/><path fill="#65a2cc" stroke="#65a2cc" d="M354 433l39 1-38-40z" class="B"/><path fill="#5490c3" stroke="#5490c3" d="M393 472v-38l-39-1z" class="B"/><path fill="#f6c6b5" stroke="#f6c6b5" d="M157 235l-39 39 39 3z" class="B"/><path fill="#fbc4aa" stroke="#fbc4aa" d="M196 158l-40 39h41z" class="B"/><path fill="#c7b9b9" stroke="#c7b9b9" d="M156 356l2 38 38-38z" class="B"/><path fill="#b0adb8" stroke="#b0adb8" d="M158 394l38 41 2-41z" class="B"/><path fill="#99b1d4" stroke="#99b1d4" d="M236 434l40 38v-37z" class="B"/><path fill="#d2aca5" stroke="#d2aca5" d="M355 117h-40l40 40z" class="B"/><path fill="#f8bea7" stroke="#f8bea7" d="M237 155l-2-37-39 40z" class="B"/><path fill="#7aa3ce" stroke="#7aa3ce" d="M474 315l-41-1v40z" class="B"/><path fill="#9dafd1" stroke="#9dafd1" d="M435 274l38-40-41 1z" class="B"/><path fill="#6e9ac9" stroke="#6e9ac9" d="M472 355l2-40-41 39z" class="B"/><path fill="#eab9ac" stroke="#eab9ac" d="M315 117h-40l1 39z" class="B"/><path fill="#8facd3" stroke="#8facd3" d="M276 435v37l39-37z" class="B"/><path fill="#719fcb" stroke="#719fcb" d="M315 435l39 40v-42z" class="B"/><path fill="#9aaacf" stroke="#9aaacf" d="M234 473l42-1-40-38z" class="B"/><path fill="#f5bdab" stroke="#f5bdab" d="M118 237v37l39-39z" class="B"/><path fill="#dbb8af" stroke="#dbb8af" d="M156 313l-38 3 38 40z" class="B"/><path fill="#bea4a5" stroke="#bea4a5" d="M156 356l-38 38h40z" class="B"/><path fill="#e6b7ac" stroke="#e6b7ac" d="M118 274v42l38-3z" class="B"/><path fill="#86a4cf" stroke="#86a4cf" d="M276 472l40 3-1-40z" class="B"/><path fill="#5f96c6" stroke="#5f96c6" d="M434 393l38-38-39-1z" class="B"/><path fill="#96aad1" stroke="#96aad1" d="M474 276l-1-42-38 40z" class="B"/><path fill="#ac9fab" stroke="#ac9fab" d="M433 195l3-38-43-2z" class="B"/><path fill="#c6aba8" stroke="#c6aba8" d="M393 155l-38-38v40z" class="B"/><path fill="#bc9c9d" stroke="#bc9c9d" d="M394 118l-39-1 38 38z" class="B"/><path fill="#f5bcab" stroke="#f5bcab" d="M275 117l-40 1 2 37z" class="B"/><path fill="#f8b798" stroke="#f8b798" d="M196 158l-38-2-2 41z" class="B"/><path fill="#f8bea7" stroke="#f8bea7" d="M156 197l-38 40 39-2z" class="B"/><path fill="#8296bb" stroke="#8296bb" d="M276 472l1 40 39-37z" class="B"/><path fill="#a1a9c5" stroke="#a1a9c5" d="M196 435l38 38 2-39z" class="B"/><path fill="#4390c1" stroke="#4390c1" d="M393 434l40-2-40-39z" class="B"/><path fill="#508ac0" stroke="#508ac0" d="M434 393h39l-1-38z" class="B"/><path fill="#769cca" stroke="#769cca" d="M316 475h38l-39-40z" class="B"/><path fill="#aca0ad" stroke="#aca0ad" d="M158 394v40l38 1z" class="B"/><path fill="#d2aba5" stroke="#d2aba5" d="M118 316l-3 37 41 3z" class="B"/><path fill="#d39e98" stroke="#d39e98" d="M75 316l40 37 3-37z" class="B"/><path fill="#e5a99e" stroke="#e5a99e" d="M79 276l39 40v-42z" class="B"/><path fill="#367eb9" stroke="#367eb9" d="M432 474l1-42-40 2z" class="B"/><path fill="#a49aaf" stroke="#a49aaf" d="M472 196l-36-39-3 38z" class="B"/><path fill="#f5ae90" stroke="#f5ae90" d="M195 115l-37 41 38 2z" class="B"/><path fill="#f5b299" stroke="#f5b299" d="M156 197h-39l1 40z" class="B"/><path fill="#a09fbd" stroke="#a09fbd" d="M196 435v37l38 1z" class="B"/><path fill="#af989f" stroke="#af989f" d="M118 394l40 40v-40z" class="B"/><path fill="#9ea3c3" stroke="#9ea3c3" d="M473 234l-1-38-40 39z" class="B"/><path fill="#ad8f97" stroke="#ad8f97" d="M434 118h-40l-1 37z" class="B"/><path fill="#3c84bc" stroke="#3c84bc" d="M433 432l40-39h-39z" class="B"/><path fill="#6884ab" stroke="#6884ab" d="M515 356l-1-41h-40z" class="B"/><path fill="#5b90c3" stroke="#5b90c3" d="M354 475l39-3-39-39z" class="B"/><path fill="#3178b5" stroke="#3178b5" d="M433 432l42 3-2-42z" class="B"/><path fill="#edada0" stroke="#edada0" d="M118 237l-39 39 39-2z" class="B"/><path fill="#f2a689" stroke="#f2a689" d="M118 158l-1 39h39z" class="B"/><path fill="#a194ad" stroke="#a194ad" d="M158 472h38v-37z" class="B"/><path fill="#c4a2a0" stroke="#c4a2a0" d="M115 353l3 41 38-38z" class="B"/><path fill="#f4a888" stroke="#f4a888" d="M158 156l-40 2 38 39z" class="B"/><path fill="#f5b299" stroke="#f5b299" d="M235 118l-40-3 1 43z" class="B"/><path fill="#eea38f" stroke="#eea38f" d="M234 76l-39 39 40 3z" class="B"/><path fill="#efab9b" stroke="#efab9b" d="M234 76l1 42 40-1z" class="B"/><path fill="#e0a69d" stroke="#e0a69d" d="M315 79l-40 38h40z" class="B"/><path fill="#d49f99" stroke="#d49f99" d="M355 117l-40-38v38z" class="B"/><path fill="#ca9491" stroke="#ca9491" d="M354 77l-39 2 40 38z" class="B"/><path fill="#e1a198" stroke="#e1a198" d="M315 79l-38-2-2 40z" class="B"/><path fill="#8f9aba" stroke="#8f9aba" d="M474 276l38-39-39-3z" class="B"/><path fill="#958fa9" stroke="#958fa9" d="M473 234l41-39-42 1z" class="B"/><path fill="#7c94ba" stroke="#7c94ba" d="M474 315h40l-40-39z" class="B"/><path fill="#6489b4" stroke="#6489b4" d="M515 356l-41-41-2 40z" class="B"/><path fill="#7c8daf" stroke="#7c8daf" d="M514 315l1-38-41-1z" class="B"/><path fill="#eba597" stroke="#eba597" d="M76 236l3 40 39-39z" class="B"/><path fill="#b78c8f" stroke="#b78c8f" d="M115 353l-36 43 39-2z" class="B"/><path fill="#8c9bbe" stroke="#8c9bbe" d="M234 473l43 39-1-40z" class="B"/><path fill="#6589b3" stroke="#6589b3" d="M316 475l38 39v-39z" class="B"/><path fill="#487bab" stroke="#487bab" d="M354 475l40 39-1-42z" class="B"/><path fill="#8a92b0" stroke="#8a92b0" d="M234 515l43-3-43-39z" class="B"/><path fill="#778cb0" stroke="#778cb0" d="M277 512l38 1 1-38z" class="B"/><path fill="#8692b2" stroke="#8692b2" d="M515 277l-3-40-38 39z" class="B"/><path fill="#a17c8f" stroke="#a17c8f" d="M474 115l-40 3 2 39z" class="B"/><path fill="#dc9f97" stroke="#dc9f97" d="M79 276l-4 40h43z" class="B"/><path fill="#ab919b" stroke="#ab919b" d="M436 157l-2-39-41 37z" class="B"/><path fill="#bc8b8d" stroke="#bc8b8d" d="M394 77h-40l1 40z" class="B"/><path fill="#a28da4" stroke="#a28da4" d="M474 158l-38-1 36 39z" class="B"/><path fill="#968498" stroke="#968498" d="M514 195l-40-37-2 38z" class="B"/><path fill="#b78c8f" stroke="#b78c8f" d="M394 77l-39 40 39 1z" class="B"/><path fill="#d58b88" stroke="#d58b88" d="M316 37l-41 1 2 39z" class="B"/><path fill="#eb9d8b" stroke="#eb9d8b" d="M79 197l-3 39 42 1z" class="B"/><path fill="#ef9878" stroke="#ef9878" d="M156 118l-38 40 40-2z" class="B"/><path fill="#5280ae" stroke="#5280ae" d="M473 393l42-37-43-1z" class="B"/><path fill="#387eb9" stroke="#387eb9" d="M393 472l39 2-39-40z" class="B"/><path fill="#316fa5" stroke="#316fa5" d="M394 514l38-40-39-2z" class="B"/><path fill="#f09e80" stroke="#f09e80" d="M195 115l-39 3 2 38z" class="B"/><path fill="#e88c71" stroke="#e88c71" d="M158 75l-2 43 39-3z" class="B"/><path fill="#8e8ba4" stroke="#8e8ba4" d="M197 512l37 3v-42z" class="B"/><path fill="#a593a7" stroke="#a593a7" d="M158 434v38l38-37z" class="B"/><path fill="#a48596" stroke="#a48596" d="M118 434l40 38v-38z" class="B"/><path fill="#a98a95" stroke="#a98a95" d="M118 434h40l-40-40z" class="B"/><path fill="#4472a0" stroke="#4472a0" d="M515 395v-39l-42 37z" class="B"/><path fill="#7887a7" stroke="#7887a7" d="M552 316v-40l-37 1z" class="B"/><path fill="#eaa499" stroke="#eaa499" d="M277 77l-43-1 41 41z" class="B"/><path fill="#e2968f" stroke="#e2968f" d="M275 38l-41 38 43 1z" class="B"/><path fill="#c99491" stroke="#c99491" d="M75 316l3 38 37-1z" class="B"/><path fill="#276caf" stroke="#276caf" d="M473 474l2-39-42-3z" class="B"/><path fill="#a88089" stroke="#a88089" d="M79 396l39 38v-40z" class="B"/><path fill="#6985ac" stroke="#6985ac" d="M315 513l39 1-38-39z" class="B"/><path fill="#d9928d" stroke="#d9928d" d="M79 276l-40-2 36 42z" class="B"/><path fill="#eea18b" stroke="#eea18b" d="M79 197l39 40-1-40z" class="B"/><path fill="#7887a7" stroke="#7887a7" d="M277 512l-1 40 39-39z" class="B"/><path fill="#657fa3" stroke="#657fa3" d="M315 513v40l39-39z" class="B"/><path fill="#9590aa" stroke="#9590aa" d="M197 512l37-39-38-1z" class="B"/><path fill="#e28d80" stroke="#e28d80" d="M235 36l-38 39 37 1z" class="B"/><path fill="#a57883" stroke="#a57883" d="M434 79l-40-2v41z" class="B"/><path fill="#a47987" stroke="#a47987" d="M434 79l-40 39h40z" class="B"/><path fill="#8e8ba4" stroke="#8e8ba4" d="M512 237l2-42-41 39z" class="B"/><path fill="#a07d93" stroke="#a07d93" d="M474 158v-43l-38 42z" class="B"/><path d="M551 196l-37-1-2 42z" class="B E F"/><path fill="#eb957c" stroke="#eb957c" d="M118 158l-39 39h38z" class="B"/><path fill="#e5866e" stroke="#e5866e" d="M79 155v42l39-39z" class="B"/><path fill="#97859a" stroke="#97859a" d="M158 472l39 40-1-40z" class="B"/><path fill="#907586" stroke="#907586" d="M155 515l42-3-39-40z" class="B"/><path fill="#2f6ea4" stroke="#2f6ea4" d="M475 435l40-40-42-2z" class="B"/><path fill="#4e78a3" stroke="#4e78a3" d="M354 514h40l-40-39z" class="B"/><path fill="#286daf" stroke="#286daf" d="M432 474h41l-40-42z" class="B"/><path fill="#416c98" stroke="#416c98" d="M393 552l1-38h-40z" class="B"/><path fill="#9e768d" stroke="#9e768d" d="M118 434l-1 41 41-3z" class="B"/><path fill="#bc8b8d" stroke="#bc8b8d" d="M78 354l1 42 36-43z" class="B"/><path fill="#ad7780" stroke="#ad7780" d="M37 394l42 2-1-42z" class="B"/><path fill="#e7876a" stroke="#e7876a" d="M156 118h-38v40z" class="B"/><path fill="#ea9885" stroke="#ea9885" d="M234 76l-37-1-2 40z" class="B"/><path fill="#d5908d" stroke="#d5908d" d="M277 77l38 2 1-42z" class="B"/><path fill="#df745c" stroke="#df745c" d="M115 77l3 41h38z" class="B"/><path fill="#256096" stroke="#256096" d="M475 435h39l1-40z" class="B"/><path fill="#205e9b" stroke="#205e9b" d="M435 512l38-38h-41z" class="B"/><path fill="#946f80" stroke="#946f80" d="M513 158l-39-43v43z" class="B"/><path fill="#9d6c81" stroke="#9d6c81" d="M474 115l-40-36v39zM78 435l39 40 1-41z" class="B"/><path fill="#907686" stroke="#907686" d="M514 195l-1-37h-39z" class="B"/><path d="M515 277l37-1-40-39z" class="B I J"/><path fill="#8a7586" stroke="#8a7586" d="M514 195l37 1-38-38z" class="B"/><path d="M552 316l-37-39-1 38z" class="B K L"/><path d="M552 316l-38-1 1 41z" class="B U V"/><path fill="#5c7aa0" stroke="#5c7aa0" d="M553 354l-1-38-37 40z" class="B"/><path fill="#be7f82" stroke="#be7f82" d="M316 37l38 40V36z" class="B"/><path fill="#c98a89" stroke="#c98a89" d="M316 37l-1 42 39-2z" class="B"/><path fill="#b1767d" stroke="#b1767d" d="M354 36v41l40-38z" class="B"/><path fill="#266197" stroke="#266197" d="M394 514l41-2-3-38z" class="B"/><path fill="#df8e87" stroke="#df8e87" d="M36 235l3 39 37-38z" class="B"/><path fill="#e47e63" stroke="#e47e63" d="M118 118l-39 37 39 3z" class="B"/><path fill="#e2978f" stroke="#e2978f" d="M76 236l-37 38 40 2z" class="B"/><path fill="#c28586" stroke="#c28586" d="M75 316l-39 39 42-1z" class="B"/><path fill="#dd877c" stroke="#dd877c" d="M36 235l40 1-40-40z" class="B"/><path fill="#1c5691" stroke="#1c5691" d="M512 472l2-37h-39z" class="B"/><path fill="#4a719b" stroke="#4a719b" d="M554 394l-1-40-38 2z" class="B"/><path fill="#1a5898" stroke="#1a5898" d="M512 472l-37-37-2 39z" class="B"/><path d="M234 515l42 37 1-40z" class="B I J"/><path d="M394 514l40 39 1-41z" class="B M N"/><path d="M237 553l39-1-42-37z" class="B W X"/><path d="M237 553l-3-38-38 37z" class="B Y Z"/><path fill="#db6d57" stroke="#db6d57" d="M118 118H77l2 37z" class="B"/><path fill="#e68b75" stroke="#e68b75" d="M197 75h-39l37 40z" class="B"/><path fill="#de7d6b" stroke="#de7d6b" d="M195 36l-37 39h39z" class="B"/><path d="M276 552l39 1v-40z" class="B K L"/><path fill="#a17181" stroke="#a17181" d="M79 396l-1 39 40-1z" class="B"/><path fill="#9a6476" stroke="#9a6476" d="M38 435h40l1-39z" class="B"/><path fill="#d18988" stroke="#d18988" d="M39 274l-2 39 38 3z" class="B"/><path fill="#946e80" stroke="#946e80" d="M117 475l38 40 3-43z" class="B"/><path fill="#8b5e6e" stroke="#8b5e6e" d="M116 514l39 1-38-40z" class="B"/><path d="M554 394l-39-38v39z" class="B a b"/><path d="M593 274l-39-38-2 40z" class="B I J"/><path d="M592 316l-40-40v40z" class="B K L"/><path fill="#858ba7" stroke="#858ba7" d="M552 276l2-40-42 1z" class="B"/><path fill="#ad777f" stroke="#ad777f" d="M394 39l-40 38h40z" class="B"/><path fill="#c78686" stroke="#c78686" d="M275-2l-40 38 40 2z" class="B"/><path fill="#de8e86" stroke="#de8e86" d="M275 38l-40-2-1 40z" class="B"/><path fill="#bb8183" stroke="#bb8183" d="M315-2l-40 40 41-1z" class="B"/><path fill="#5d7ba0" stroke="#5d7ba0" d="M315 553h40l-1-39z" class="B"/><path d="M276 593h39v-40z" class="B K L"/><path d="M196 552l38-37-37-3z" class="B E F"/><path fill="#b07c81" stroke="#b07c81" d="M-2 274l1 41 38-2z" class="B"/><path fill="#e28b7b" stroke="#e28b7b" d="M36 196l40 40 3-39z" class="B"/><path fill="#c48284" stroke="#c48284" d="M37 313l-1 42 39-39z" class="B"/><path fill="#ae7a80" stroke="#ae7a80" d="M-1 315l37 40 1-42z" class="B"/><path fill="#88849b" stroke="#88849b" d="M554 236l-3-40-39 41z" class="B"/><path fill="#884f65" stroke="#884f65" d="M515 77h-42l1 38z" class="B"/><path fill="#9a6577" stroke="#9a6577" d="M435 39l-41 38 40 2z" class="B"/><path fill="#9b6474" stroke="#9b6474" d="M435 39h-41v38z" class="B"/><path fill="#4b729b" stroke="#4b729b" d="M355 553l38-1-39-38z" class="B"/><path d="M553 354l39-38h-40z" class="B U V"/><path d="M553 433l1-39-39 1z" class="B c d"/><path fill="#8a7586" stroke="#8a7586" d="M155 515l41 37 1-40z" class="B"/><path fill="#dd8376" stroke="#dd8376" d="M235 36h-40l2 39z" class="B"/><path fill="#d86f5e" stroke="#d86f5e" d="M36 155v41l43-41z" class="B"/><path fill="#854f61" stroke="#854f61" d="M79 514h37l1-39z" class="B"/><path fill="#b0767d" stroke="#b0767d" d="M36 355l1 39 41-40z" class="B"/><path fill="#df7e6c" stroke="#df7e6c" d="M79 155l-43 41 43 1z" class="B"/><path fill="#d7624e" stroke="#d7624e" d="M77 118h41l-3-41z" class="B"/><path d="M514 435l39-2-38-38z" class="B M N"/><path fill="#134b86" stroke="#134b86" d="M473 513l39-41-39 2z" class="B"/><path fill="#17518e" stroke="#17518e" d="M473 513v-39l-38 38z" class="B"/><path fill="#965f79" stroke="#965f79" d="M474 115l-1-38-39 2z" class="B"/><path fill="#8b5e6f" stroke="#8b5e6f" d="M515 116l-41-1 39 43z" class="B"/><path d="M434 553l39-40-38-1z" class="B O P"/><path fill="#88606e" stroke="#88606e" d="M554 156l-39-40-2 42z" class="B"/><path fill="#df755d" stroke="#df755d" d="M115 77l41 41 2-43z" class="B"/><path fill="#d25d4d" stroke="#d25d4d" d="M117 37l-2 40 43-2z" class="B"/><path fill="#8b6e7d" stroke="#8b6e7d" d="M155 515v40l41-3z" class="B"/><path fill="#965e78" stroke="#965e78" d="M76 474l41 1-39-40z" class="B"/><path fill="#925771" stroke="#925771" d="M38 435l38 39 2-39z" class="B"/><path fill="#9d727c" stroke="#9d727c" d="M355-3l-40 1 39 38z" class="B"/><path fill="#935872" stroke="#935872" d="M473 77l-38-38-1 40z" class="B"/><path fill="#8b4a6a" stroke="#8b4a6a" d="M475 37l-40 2 38 38z" class="B"/><path fill="#144b86" stroke="#144b86" d="M552 473l-38-38-2 37z" class="B"/><path d="M552 473l1-40-39 2z" class="B O P"/><path fill="#8b6f7e" stroke="#8b6f7e" d="M551 196l3-40-41 2z" class="B"/><path fill="#8a7485" stroke="#8a7485" d="M592 195l-38-39-3 40z" class="B"/><path fill="#d76f5e" stroke="#d76f5e" d="M195 36l-39 2 2 37z" class="B"/><path fill="#2a6091" stroke="#2a6091" d="M393 552l41 1-40-39z" class="B"/><path fill="#0b3c72" stroke="#0b3c72" d="M473 513l42 2-3-43z" class="B"/><path d="M395 594l39-41-41-1z" class="B c d"/><path fill="#9a6374" stroke="#9a6374" d="M37 394l1 41 41-39z" class="B"/><path fill="#855b70" stroke="#855b70" d="M-1 395l39 40-1-41z" class="B"/><path fill="#d66653" stroke="#d66653" d="M77 118l-41 37h43z" class="B"/><path fill="#cc5548" stroke="#cc5548" d="M37 115l-1 40 41-37z" class="B"/><path fill="#4b729b" stroke="#4b729b" d="M592 354h-39l1 40z" class="B"/><path fill="#5d7ba0" stroke="#5d7ba0" d="M592 354v-38l-39 38z" class="B"/><path d="M554 236l38-41-41 1z" class="B E F"/><path fill="#906977" stroke="#906977" d="M355-3l-1 39 39-37z" class="B"/><path fill="#ae7a80" stroke="#ae7a80" d="M354 36L315-2l1 39z" class="B"/><path fill="#c77a72" stroke="#c77a72" d="M235 36L197-3l-2 39z" class="B"/><path fill="#c2675b" stroke="#c2675b" d="M195 36L157-2l-1 40z" class="B"/><path fill="#7887a8" stroke="#7887a8" d="M592 316l1-42-41 2z" class="B"/><path fill="#b47e82" stroke="#b47e82" d="M315-2h-40v40z" class="B"/><path fill="#88606d" stroke="#88606d" d="M116 554l39 1v-40z" class="B"/><path d="M276 593v-41l-39 1z" class="B I J"/><path fill="#7887a8" stroke="#7887a8" d="M276 593l39-40-39-1z" class="B"/><path fill="#657fa3" stroke="#657fa3" d="M315 553v40l40-40z" class="B"/><path fill="#4a719b" stroke="#4a719b" d="M355 553l1 40 37-41z" class="B"/><path d="M116 554l39-39-39-1z" class="B e f"/><path fill="#9a6d79" stroke="#9a6d79" d="M36 355l-38 1 39 38z" class="B"/><path fill="#c08384" stroke="#c08384" d="M-2 274l39 39 2-39z" class="B"/><path fill="#c78786" stroke="#c78786" d="M-2 274h41l-3-39z" class="B"/><path fill="#bd8080" stroke="#bd8080" d="M-2 274l38-39-38-1z" class="B"/><path d="M276 593l-39-40-3 39z" class="B W X"/><path fill="#c77e78" stroke="#c77e78" d="M-2 234l38 1v-39z" class="B"/><path d="M234 592l3-39-41-1z" class="B Y Z"/><path d="M592 395v-41l-38 40z" class="B a b"/><path fill="#6d82a5" stroke="#6d82a5" d="M592 316v38l1-80z" class="B"/><path fill="#b37e82" stroke="#b37e82" d="M277-40L237-4l38 2z" class="B"/><path fill="#946876" stroke="#946876" d="M393-1l-39 37 40 3z" class="B"/><path fill="#6d83a5" stroke="#6d83a5" d="M594 434V234l-1 40z" class="B"/><path d="M593 274l1-40-40 2z" class="B W X"/><path fill="#bd8180" stroke="#bd8180" d="M275-2l-38-2-2 40z" class="B"/><path fill="#ab7a80" stroke="#ab7a80" d="M277-40l-2 38h40z" class="B"/><path d="M194 593l40-1-38-40z" class="B E F"/><path fill="#5c7aa0" stroke="#5c7aa0" d="M315 593h41l-1-40z" class="B"/><path fill="#bd7670" stroke="#bd7670" d="M-3 197l1 37 38-38z" class="B"/><path fill="#9d727c" stroke="#9d727c" d="M-1 315l-1 41 38-1z" class="B"/><path fill="#9b727c" stroke="#9b727c" d="M-41 314l39 42 1-41z" class="B"/><path fill="#854e60" stroke="#854e60" d="M515 116V77l-41 38z" class="B"/><path fill="#865c70" stroke="#865c70" d="M435 39L393-1l1 40z" class="B"/><path fill="#804859" stroke="#804859" d="M551 115l-36-38v39z" class="B"/><path d="M551 115l-36 1 39 40z" class="B e f"/><path fill="#ce5244" stroke="#ce5244" d="M115 77H77v41z" class="B"/><path fill="#c4413b" stroke="#c4413b" d="M76 38l1 39h38z" class="B"/><path fill="#d15f4f" stroke="#d15f4f" d="M117 37l41 38-2-37z" class="B"/><path fill="#7b3b53" stroke="#7b3b53" d="M37 513l42 1-3-40z" class="B"/><path fill="#894f66" stroke="#894f66" d="M76 474l3 40 38-39z" class="B"/><path fill="#76516b" stroke="#76516b" d="M436-3l-43 2 42 40z" class="B"/><path d="M474 552l-1-39-39 40z" class="B g h"/><path fill="#0c3c72" stroke="#0c3c72" d="M474 552l41-37-42-2z" class="B"/><path d="M553 433l39-38-38-1z" class="B c d"/><path fill="#865867" stroke="#865867" d="M592 118l-41-3 3 41z" class="B"/><path d="M594 234l-2-39-38 41z" class="B Y Z"/><path d="M515 515l37-42-40-1z" class="B i j"/><path fill="#54779f" stroke="#54779f" d="M592 354l2 80-1-160z" class="B"/><path d="M594 434l-2-39-39 38z" class="B M N"/><path fill="#7e3c58" stroke="#7e3c58" d="M513 39l-38-2-2 40z" class="B"/><path d="M475 592l-1-40-40 1z" class="B g h"/><path fill="#bd7a76" stroke="#bd7a76" d="M237-4l-40 1 38 39z" class="B"/><path fill="#bc584c" stroke="#bc584c" d="M157-2l-40 39 39 1z" class="B"/><path fill="#8a4969" stroke="#8a4969" d="M38 435l-2 40 40-1z" class="B"/><path fill="#886374" stroke="#886374" d="M-2 356l1 39 38-1z" class="B"/><path fill="#b96a61" stroke="#b96a61" d="M-2 157l-1 40 39-1z" class="B"/><path fill="#ab7a80" stroke="#ab7a80" d="M-43 277l2 37 39-40z" class="B"/><path fill="#a7787f" stroke="#a7787f" d="M-2 274l-39 40 40 1z" class="B"/><path fill="#c2675b" stroke="#c2675b" d="M-2 157l38 39v-41z" class="B"/><path d="M276 593l119 1-80-1z" class="B U V"/><path fill="#53779e" stroke="#53779e" d="M315 593l80 1-39-1z" class="B"/><path d="M356 593l39 1-2-42z" class="B a b"/><g fill="#c5423c" stroke="#c5423c" class="B"><path d="M39 78l38 40V77z"/><path d="M39 78l-2 37 40 3z"/></g><path fill="#7d89a8" stroke="#7d89a8" d="M276 593l-120 1h239z" class="B"/><path fill="#8787a1" stroke="#8787a1" d="M234 592l-40 1h82z" class="B"/><path fill="#8b7485" stroke="#8b7485" d="M155 555l39 38 2-41z" class="B"/><path fill="#8b6e7c" stroke="#8b6e7c" d="M156 594l38-1-39-38z" class="B"/><path fill="#80495a" stroke="#80495a" d="M79 514l37 40v-40z" class="B"/><path fill="#764365" stroke="#764365" d="M-1 473l37 2 2-40z" class="B"/><path d="M79 514l-2 41 39-1z" class="B k l"/><path fill="#8a7b8e" stroke="#8a7b8e" d="M594 234v-76l-2 37z" class="B"/><path fill="#8b6f7d" stroke="#8b6f7d" d="M592 195l2-37-40-2z" class="B"/><path d="M554 37l-41 2 2 38z" class="B m n"/><path fill="#b96a61" stroke="#b96a61" d="M197-3l-40 1 38 38z" class="B"/><path fill="#794868" stroke="#794868" d="M475 37L436-3l-1 42z" class="B"/><path fill="#9b727c" stroke="#9b727c" d="M316-43l-1 41 39-40z" class="B"/><path fill="#a6787f" stroke="#a6787f" d="M316-43l-39 3 38 38z" class="B"/><path fill="#6b3f63" stroke="#6b3f63" d="M474-3h-38l39 40z" class="B"/><path fill="#366694" stroke="#366694" d="M592 395l2 39-2-80z" class="B"/><path d="M552 473l42-39-41-1z" class="B O P"/><path d="M594 475v-41l-42 39z" class="B g h"/><path d="M395 594l38-1 1-40z" class="B M N"/><path d="M474 552l38 1 3-38z" class="B Q R"/><path fill="#b15349" stroke="#b15349" d="M-4 115l2 42 38-2z" class="B"/><path fill="#76516b" stroke="#76516b" d="M-1 395v40h39z" class="B"/><path fill="#6d4d69" stroke="#6d4d69" d="M-42 435h41v-40z" class="B"/><path d="M115 594l40-39-39-1z" class="B e f"/><path fill="#88606d" stroke="#88606d" d="M115 594h41l-1-39z" class="B"/><path d="M194 593l-38 1 120-1z" class="B E F"/><path fill="#7b3b53" stroke="#7b3b53" d="M515 77l-2-38-40 38z" class="B"/><path d="M553 79l-38-2 36 38z" class="B k l"/><path fill="#80495a" stroke="#80495a" d="M592 118l-39-39-2 36z" class="B"/><path fill="#946e7a" stroke="#946e7a" d="M315-2l40-1-1-39z" class="B"/><path fill="#b47774" stroke="#b47774" d="M237-4l-1-36-39 37z" class="B"/><path fill="#af6058" stroke="#af6058" d="M197-3l-40-38v39z" class="B"/><path fill="#b74d44" stroke="#b74d44" d="M37 115H-4l40 40z" class="B"/><path fill="#bb3033" stroke="#bb3033" d="M76 38L39 78l38-1z" class="B"/><path fill="#c4413c" stroke="#c4413c" d="M76 38l39 39 2-40z" class="B"/><path fill="#083568" stroke="#083568" d="M515 515h39l-2-42z" class="B"/><path d="M475 592l37-39-38-1z" class="B i j"/><path fill="#866575" stroke="#866575" d="M354-42l1 39 40-39z" class="B"/><path fill="#af3a38" stroke="#af3a38" d="M115-3L76 38l41-1z" class="B"/><path fill="#7f5f72" stroke="#7f5f72" d="M-2 356l-40 38 41 1z" class="B"/><path fill="#b37e82" stroke="#b37e82" d="M-43 277l41-3-41-38z" class="B"/><path fill="#b47d7f" stroke="#b47d7f" d="M-2 274v-40l-41 2z" class="B"/><path d="M553 554l1-39h-39z" class="B C D"/><path fill="#ae7c81" stroke="#ae7c81" d="M316-43l-80 3h41z" class="B"/><path fill="#b57e7f" stroke="#b57e7f" d="M277-40h-41l1 36z" class="B"/><path fill="#7d3b57" stroke="#7d3b57" d="M36 475l1 38 39-39z" class="B"/><path fill="#632d4b" stroke="#632d4b" d="M-3 512l40 1-1-38z" class="B"/><path fill="#b47774" stroke="#b47774" d="M-43 236l41-2-39-37z" class="B"/><path fill="#7f6072" stroke="#7f6072" d="M395-42L355-3l38 2z" class="B"/><path fill="#76354c" stroke="#76354c" d="M39 555h38l2-41z" class="B"/><path fill="#88616e" stroke="#88616e" d="M594 158l-2-40-38 38z" class="B"/><path fill="#b4736e" stroke="#b4736e" d="M-41 197l39 37-1-37z" class="B"/><path fill="#946e7a" stroke="#946e7a" d="M-41 314l-2 41 41 1z" class="B"/><path fill="#704566" stroke="#704566" d="M-1 435v38l39-38z" class="B"/><path fill="#a1757e" stroke="#a1757e" d="M-43 277v78l2-41z" class="B"/><path d="M436-3l-41-39-2 41z" class="B o p"/><path fill="#5f3151" stroke="#5f3151" d="M512-3h-38l1 40z" class="B"/><path fill="#642d4b" stroke="#642d4b" d="M512-3l-37 40 38 2z" class="B"/><path fill="#75344b" stroke="#75344b" d="M554 37l-39 40 38 2z" class="B"/><path d="M433 593l42-1-41-39z" class="B O P"/><path d="M512 553l41 1-38-39zm1 38l-38 1 118 2z" class="C D B"/><path fill="#664264" stroke="#664264" d="M-42 435l41 38v-38z" class="B"/><path d="M593 512l1-37-42-2z" class="B i j"/><path fill="#ae4a44" stroke="#ae4a44" d="M157-2l-42-1 2 40z" class="B"/><path fill="#a64842" stroke="#a64842" d="M118-42l-3 39 42 1z" class="B"/><path fill="#6c4e69" stroke="#6c4e69" d="M436-42h-41l41 39z" class="B"/><path fill="#8d6b78" stroke="#8d6b78" d="M354-42h41l-79-1z" class="B"/><path fill="#b16760" stroke="#b16760" d="M-2 157l-39 40h38z" class="B"/><path fill="#a53737" stroke="#a53737" d="M-1 78l-3 37h41z" class="B"/><path fill="#ac3335" stroke="#ac3335" d="M-1 78l38 37 2-37z" class="B"/><path fill="#b1182b" stroke="#b1182b" d="M38 36l1 42 37-40z" class="B"/><path fill="#804859" stroke="#804859" d="M77 555l38 39 1-40z" class="B"/><path fill="#b4736f" stroke="#b4736f" d="M236-40l-39-3v40z" class="B"/><path fill="#b57e7f" stroke="#b57e7f" d="M316-43H197l39 3z" class="B"/><path fill="#af6058" stroke="#af6058" d="M-41 156v41l39-40z" class="B"/><path fill="#866575" stroke="#866575" d="M-43 355l1 39 40-38z" class="B"/><path fill="#b16760" stroke="#b16760" d="M197-43l-40 2 40 38z" class="B"/><path d="M591 38l-37-1-1 42z" class="B m n"/><path fill="#654163" stroke="#654163" d="M474-3l-38-39v39z" class="B"/><path fill="#78596f" stroke="#78596f" d="M395-42l79-1H316z" class="B"/><path fill="#623c61" stroke="#623c61" d="M474-43l-38 1 38 39z" class="B"/><path d="M554 515l39-3-41-39z" class="B Q R"/><path d="M513 591l40-37-41-1z" class="B C D"/><path fill="#a95048" stroke="#a95048" d="M-4 115l-37 41 39 1z" class="B"/><path fill="#b36d67" stroke="#b36d67" d="M-41 197v-41l-2 80z" class="B"/><path fill="#a12e33" stroke="#a12e33" d="M76-3v41l39-41z" class="B"/><path fill="#9d1128" stroke="#9d1128" d="M39-2l-1 38 38 2z" class="B"/><path fill="#a54742" stroke="#a54742" d="M-4 115l-37 1v40z" class="B"/><path fill="#552441" stroke="#552441" d="M552 0l-40-3 1 42z" class="B"/><path fill="#7d4154" stroke="#7d4154" d="M77 555l1 39h37z" class="B"/><path fill="#722e47" stroke="#722e47" d="M37 513l2 42 40-41z" class="B"/><path d="M-1 552l40 3-2-42z" class="B S T"/><path fill="#5f3151" stroke="#5f3151" d="M-3 512l39-37-37-2z" class="B"/><path d="M-42 394v41l41-40z" class="B o p"/><path fill="#694866" stroke="#694866" d="M-43 473l1-38v-41z" class="B"/><path d="M475 592l38-1-1-38z" class="B Q R"/><path d="M594 554l-1-42-39 3z" class="B C D"/><path fill="#991d2b" stroke="#991d2b" d="M-1 39v39h40z" class="B"/><path fill="#835161" stroke="#835161" d="M594 158V76l-2 42z" class="B"/><path d="M592 118l2-42-41 3z" class="B k l"/><path fill="#992c31" stroke="#992c31" d="M78-43L76-3h39z" class="B"/><path fill="#572f50" stroke="#572f50" d="M-43 473l40 39 2-39z" class="B"/><path fill="#76354c" stroke="#76354c" d="M39 555l39 39-1-39z" class="B"/><path fill="#694766" stroke="#694766" d="M436-42l38-1-79 1z" class="B"/><path fill="#572f50" stroke="#572f50" d="M512-3l-38-40v40z" class="B"/><path fill="#512747" stroke="#512747" d="M513-43h-39l38 40z" class="B"/><path d="M552 0l-39 39 41-2z" class="B S T"/><path fill="#aa5149" stroke="#aa5149" d="M157-41l-39-1 39 40z" class="B"/><path fill="#ad5950" stroke="#ad5950" d="M197-43l-79 1 39 1z" class="B"/><path fill="#9d3435" stroke="#9d3435" d="M-42 75l1 41 37-1z" class="B"/><path fill="#ad584f" stroke="#ad584f" d="M-41 156l-1-81-1 161z" class="B"/><path fill="#992c31" stroke="#992c31" d="M-42 75l38 40 3-37z" class="B"/><path fill="#9e1128" stroke="#9e1128" d="M-1 39l40 39-1-42z" class="B"/><path fill="#623c61" stroke="#623c61" d="M-42 435l-1 38h42z" class="B"/><path d="M-3 512l2 40 38-39z" class="B q r"/><path d="M-43 355v118l1-79z" class="B o p"/><path d="M591 38L552 0l2 37z" class="B S T"/><path fill="#75344b" stroke="#75344b" d="M594 76l-3-38-38 41z" class="B"/><path fill="#981b2a" stroke="#981b2a" d="M39-2l37 40V-3z" class="B"/><path fill="#800724" stroke="#800724" d="M-2-1l1 40 39-3z" class="B"/><path fill="#8b0a25" stroke="#8b0a25" d="M37-42l2 40 37-1z" class="B"/><g class="C D B"><path d="M553 554h41l-40-39zm-40 37h41l-1-37z"/><path d="M593 594l-39-3h-41z"/></g><path d="M593 594l-118-2-42 1z" class="B Q R"/><path d="M-42 514l41 38-2-40z" class="B G H"/><path d="M39 555l-2 38 41 1z" class="B m n"/><path d="M554 591l40-37h-41zm39-79l1 42v-79z" class="C D B"/><path d="M-1 593h38l2-38z" class="B S T"/><g class="G H B"><path d="M553-42L512-3l40 3z"/><path d="M553-42l-40-1-1 40z"/></g><path fill="#9e3536" stroke="#9e3536" d="M118-42l-40-1 37 40z" class="B"/><path fill="#8b0a25" stroke="#8b0a25" d="M-42 37v38l41-36z" class="B"/><path fill="#a64843" stroke="#a64843" d="M197-43H78l40 1z" class="B"/><path fill="#901829" stroke="#901829" d="M-1 39l-41 36 41 3z" class="B"/><path fill="#a13e3b" stroke="#a13e3b" d="M-41 116l-1-41 1 81z" class="B"/><path fill="#810624" stroke="#810624" d="M-2-1l40 37 1-38z" class="B"/><path fill="#552441" stroke="#552441" d="M-1 552v41l40-38z" class="B"/><path fill="#512747" stroke="#512747" d="M-43 473l1 41 39-2z" class="B"/><path d="M591 38l1-41-40 3z" class="B q r"/><path fill="#672a45" stroke="#672a45" d="M594 76l-2-79-1 41z" class="B"/><path fill="#780422" stroke="#780422" d="M37-42L-2-1l41-1z" class="B"/><path d="M554 591l39 3 1-40z" class="B C D"/><path fill="#0f447c" stroke="#0f447c" d="M395 594h198l-160-1z" class="B"/><path fill="#682a45" stroke="#682a45" d="M37 593H-1l79 1z" class="B"/><path d="M-41 591l40 2v-41zM592-3l-39-39-1 42z" class="G H B"/><path fill="#901829" stroke="#901829" d="M78-43l-41 1L76-3z" class="B"/><path fill="#9d3436" stroke="#9d3436" d="M-42 75l-1-76v237z" class="B"/><path fill="#790422" stroke="#790422" d="M-2-1l-40 38 41 2z" class="B"/><path fill="#6f0221" stroke="#6f0221" d="M-43-1l1 38L-2-1z" class="B"/><g class="G H B"><path d="M-42 514v38h41z"/><path d="M-43 473l1 79v-38zM592-3l2-39h-41z"/><path d="M553-42h41l-81-1z"/></g><path d="M594 76V-42l-2 39z" class="B q r"/><path fill="#6e0121" stroke="#6e0121" d="M37-42l-40 1 1 40z" class="B"/><path d="M-42 552l1 39 40-39z" class="B G H"/><path fill="#820724" stroke="#820724" d="M-42 37l-1-38 1 76z" class="B"/><g fill="#67001f" stroke="#67001f" class="B"><path d="M-3-41L-43-1h41z"/><path d="M-3-41h-39l-1 40z"/><path d="M37-42l-79 1h39z"/></g><path fill="#780422" stroke="#780422" d="M78-43l-41 1z" class="B"/></svg>