<svg xmlns="http://www.w3.org/2000/svg" xmlns:svg="http://www.w3.org/2000/svg" id="svg2" width="1074.34" height="380.09" version="1.1" viewBox="0 0 1007.194 356.334"><defs id="defs4"><marker id="marker4792" orient="auto" overflow="visible" refX="0" refY="0"><path id="path4794" fill="gray" fill-opacity="1" fill-rule="evenodd" stroke="gray" stroke-opacity="1" stroke-width="1pt" d="M 0,0 5,-5 -12.5,0 5,5 0,0 Z" transform="matrix(-0.4,0,0,-0.4,-4,0)"/></marker><marker id="marker4782" orient="auto" overflow="visible" refX="0" refY="0"><path id="path4784" fill="gray" fill-opacity="1" fill-rule="evenodd" stroke="gray" stroke-opacity="1" stroke-width="1pt" d="M 0,0 5,-5 -12.5,0 5,5 0,0 Z" transform="matrix(-0.4,0,0,-0.4,-4,0)"/></marker><marker id="marker5474" orient="auto" overflow="visible" refX="0" refY="0"><path id="path5476" fill="gray" fill-opacity="1" fill-rule="evenodd" stroke="gray" stroke-opacity="1" stroke-width="1pt" d="M 0,0 5,-5 -12.5,0 5,5 0,0 Z" transform="matrix(-0.4,0,0,-0.4,-4,0)"/></marker><marker id="marker5464" orient="auto" overflow="visible" refX="0" refY="0"><path id="path5466" fill="gray" fill-opacity="1" fill-rule="evenodd" stroke="gray" stroke-opacity="1" stroke-width="1pt" d="M 0,0 5,-5 -12.5,0 5,5 0,0 Z" transform="matrix(-0.4,0,0,-0.4,-4,0)"/></marker><marker id="marker5454" orient="auto" overflow="visible" refX="0" refY="0"><path id="path5456" fill="gray" fill-opacity="1" fill-rule="evenodd" stroke="gray" stroke-opacity="1" stroke-width="1pt" d="M 0,0 5,-5 -12.5,0 5,5 0,0 Z" transform="matrix(-0.4,0,0,-0.4,-4,0)"/></marker><marker id="marker5444" orient="auto" overflow="visible" refX="0" refY="0"><path id="path5446" fill="gray" fill-opacity="1" fill-rule="evenodd" stroke="gray" stroke-opacity="1" stroke-width="1pt" d="M 0,0 5,-5 -12.5,0 5,5 0,0 Z" transform="matrix(-0.4,0,0,-0.4,-4,0)"/></marker><marker id="marker5434" orient="auto" overflow="visible" refX="0" refY="0"><path id="path5436" fill="gray" fill-opacity="1" fill-rule="evenodd" stroke="gray" stroke-opacity="1" stroke-width="1pt" d="M 0,0 5,-5 -12.5,0 5,5 0,0 Z" transform="matrix(-0.4,0,0,-0.4,-4,0)"/></marker><marker id="marker5424" orient="auto" overflow="visible" refX="0" refY="0"><path id="path5426" fill="gray" fill-opacity="1" fill-rule="evenodd" stroke="gray" stroke-opacity="1" stroke-width="1pt" d="M 0,0 5,-5 -12.5,0 5,5 0,0 Z" transform="matrix(-0.4,0,0,-0.4,-4,0)"/></marker><marker id="marker5474-4" orient="auto" overflow="visible" refX="0" refY="0"><path id="path5476-1" fill="gray" fill-opacity="1" fill-rule="evenodd" stroke="gray" stroke-opacity="1" stroke-width="1pt" d="M 0,0 5,-5 -12.5,0 5,5 0,0 Z" transform="matrix(-0.4,0,0,-0.4,-4,0)"/></marker><marker id="marker4792-8" orient="auto" overflow="visible" refX="0" refY="0"><path id="path4794-4" fill="gray" fill-opacity="1" fill-rule="evenodd" stroke="gray" stroke-opacity="1" stroke-width="1pt" d="M 0,0 5,-5 -12.5,0 5,5 0,0 Z" transform="matrix(-0.4,0,0,-0.4,-4,0)"/></marker><marker id="marker4792-2" orient="auto" overflow="visible" refX="0" refY="0"><path id="path4794-40" fill="gray" fill-opacity="1" fill-rule="evenodd" stroke="gray" stroke-opacity="1" stroke-width="1pt" d="M 0,0 5,-5 -12.5,0 5,5 0,0 Z" transform="matrix(-0.4,0,0,-0.4,-4,0)"/></marker></defs><metadata id="metadata7"/><g id="layer1" transform="translate(-41.417081,4.8923002)"><rect id="rect4136" width="91.489" height="91.489" x="43.617" y="58.932" fill="none" fill-opacity="1" stroke="#666" stroke-dasharray="none" stroke-dashoffset="0" stroke-linecap="round" stroke-linejoin="round" stroke-miterlimit="4" stroke-opacity="1" stroke-width="4.4" opacity="1" rx="15.278" ry="15.278"/><rect id="rect4136-9" width="91.489" height="91.489" x="240.262" y="58.932" fill="none" fill-opacity="1" stroke="#666" stroke-dasharray="none" stroke-dashoffset="0" stroke-linecap="round" stroke-linejoin="round" stroke-miterlimit="4" stroke-opacity="1" stroke-width="4.4" opacity="1" rx="15.278" ry="15.278"/><rect id="rect4136-1" width="91.489" height="91.489" x="436.907" y="58.932" fill="none" fill-opacity="1" stroke="#666" stroke-dasharray="none" stroke-dashoffset="0" stroke-linecap="round" stroke-linejoin="round" stroke-miterlimit="4" stroke-opacity="1" stroke-width="4.4" opacity="1" rx="15.278" ry="15.278"/><rect id="rect4136-11" width="91.489" height="91.489" x="951.403" y="58.932" fill="none" fill-opacity="1" stroke="#666" stroke-dasharray="none" stroke-dashoffset="0" stroke-linecap="round" stroke-linejoin="round" stroke-miterlimit="4" stroke-opacity="1" stroke-width="4.4" opacity="1" rx="15.278" ry="15.278"/><g id="g4174" transform="translate(-227.01852,-235.18519)"><g id="content" fill="none" fill-opacity="1" fill-rule="evenodd" stroke="#000" stroke-dasharray="none" stroke-dashoffset="0" stroke-linecap="butt" stroke-linejoin="miter" stroke-miterlimit="10.433" stroke-opacity="1" font-size-adjust="none" font-stretch="normal" font-style="normal" font-variant="normal" font-weight="normal" letter-spacing="normal" text-anchor="start" transform="matrix(1.0629921,0,0,-1.0629921,-186.02362,789.27165)" word-spacing="normal" xml:space="preserve"><path id="path4177" fill="#000" stroke-width="0" d="m 487.66,440.82 0,0.02 0,0.02 0,0.01 -0.01,0.02 0,0.02 0,0.02 -0.01,0.02 0,0.02 -0.01,0.02 -0.01,0.02 -0.01,0.02 -0.01,0.02 -0.01,0.02 -0.01,0.02 -0.01,0.02 -0.02,0.02 -0.02,0.02 -0.01,0.02 -0.02,0.02 -0.02,0.02 -0.02,0.01 -0.03,0.02 -0.02,0.01 -0.03,0.02 -0.02,0.01 -0.03,0.01 -0.02,0.01 -0.01,0 -0.02,0.01 -0.02,0 -0.01,0 -0.02,0.01 -0.02,0 -0.02,0 -0.02,0 -0.02,0 -0.02,0 -0.02,0 c -0.25,0 -0.31,-0.04 -0.9,-0.75 l -2.39,-2.84 c -1.3,2.34 -3.89,3.59 -7.13,3.59 -6.33,0 -12.3,-5.73 -12.3,-11.76 0,-4.03 2.65,-6.33 5.18,-7.06 l 5.32,-1.41 c 1.85,-0.44 4.6,-1.19 4.6,-5.28 0,-4.49 -4.1,-9.16 -8.97,-9.16 -3.19,0 -8.72,1.1 -8.72,7.27 0,1.2 0.25,2.39 0.3,2.69 0.04,0.2 0.09,0.25 0.09,0.35 0,0.5 -0.34,0.55 -0.59,0.55 -0.25,0 -0.35,-0.05 -0.5,-0.2 -0.21,-0.2 -2.99,-11.56 -2.99,-11.7 0,-0.3 0.25,-0.5 0.55,-0.5 0.25,0 0.3,0.04 0.89,0.75 l 2.45,2.82 c 2.14,-2.89 5.52,-3.57 8.41,-3.57 6.78,0 12.66,6.62 12.66,12.79 0,3.44 -1.69,5.14 -2.44,5.83 -1.14,1.16 -1.89,1.34 -6.33,2.5 -1.09,0.3 -2.89,0.8 -3.34,0.89 -1.35,0.45 -3.03,1.89 -3.03,4.53 0,4.05 3.98,8.28 8.71,8.28 4.15,0 7.18,-2.14 7.18,-7.73 0,-1.59 -0.21,-2.49 -0.21,-2.78 0,-0.05 0,-0.5 0.61,-0.5 0.5,0 0.55,0.15 0.74,1 z"/></g></g><g id="g4201" transform="translate(-36.268914,-234.02653)"><g id="g4203" fill="none" fill-opacity="1" fill-rule="evenodd" stroke="#000" stroke-dasharray="none" stroke-dashoffset="0" stroke-linecap="butt" stroke-linejoin="miter" stroke-miterlimit="10.433" stroke-opacity="1" font-size-adjust="none" font-stretch="normal" font-style="normal" font-variant="normal" font-weight="normal" letter-spacing="normal" text-anchor="start" transform="matrix(1.0629921,0,0,-1.0629921,-186.02362,789.27165)" word-spacing="normal" xml:space="preserve"><path id="path4205" fill="#000" stroke-width="0" d="m 490.8,417.81 0.01,0.02 0.01,0.03 0.02,0.05 0.02,0.05 0.02,0.05 0.02,0.05 0.02,0.05 0.02,0.05 0.01,0.05 0.01,0.03 0.01,0.02 0.01,0.02 0.01,0.03 0,0.02 0.01,0.02 0.01,0.02 0,0.02 0.01,0.02 0,0.02 0.01,0.01 0,0.02 0,0.02 0,0.01 0,0.01 0.01,0.01 c 0,0.05 0,0.55 -0.6,0.55 -0.45,0 -0.55,-0.3 -0.64,-0.61 -3.25,-7.38 -5.08,-10.7 -13.61,-10.7 l -7.26,0 c -0.71,0 -0.8,0 -1.1,0.04 -0.5,0.05 -0.65,0.1 -0.65,0.5 0,0.14 0,0.25 0.25,1.14 l 3.39,13.61 4.93,0 c 4.24,0 4.24,-1.04 4.24,-2.29 0,-0.35 0,-0.96 -0.36,-2.44 -0.09,-0.25 -0.14,-0.41 -0.14,-0.55 0,-0.25 0.19,-0.55 0.64,-0.55 0.41,0 0.55,0.25 0.75,0.99 l 2.84,11.67 c 0,0.3 -0.25,0.55 -0.61,0.55 -0.43,0 -0.54,-0.3 -0.68,-0.91 -1.05,-3.78 -1.96,-4.92 -6.54,-4.92 l -4.68,0 3,12 c 0.43,1.75 0.5,1.94 2.68,1.94 l 7.02,0 c 6.08,0 7.58,-1.44 7.58,-5.53 0,-1.19 0,-1.29 -0.2,-2.64 0,-0.3 -0.05,-0.65 -0.05,-0.9 0,-0.25 0.15,-0.59 0.59,-0.59 0.56,0 0.61,0.3 0.71,1.25 l 1,8.61 c 0.14,1.34 -0.1,1.34 -1.35,1.34 l -25.15,0 c -1,0 -1.5,0 -1.5,-1 0,-0.54 0.45,-0.54 1.39,-0.54 1.84,0 3.23,0 3.23,-0.89 0,-0.21 0,-0.3 -0.25,-1.21 l -6.56,-26.34 c -0.5,-1.95 -0.61,-2.34 -4.55,-2.34 -0.84,0 -1.39,0 -1.39,-0.96 0,-0.59 0.45,-0.59 1.39,-0.59 l 25.86,0 c 1.16,0 1.2,0.05 1.55,0.84 z"/></g></g><g id="g4235" transform="translate(168.42016,-234.02653)"><g id="g4237" fill="none" fill-opacity="1" fill-rule="evenodd" stroke="#000" stroke-dasharray="none" stroke-dashoffset="0" stroke-linecap="butt" stroke-linejoin="miter" stroke-miterlimit="10.433" stroke-opacity="1" font-size-adjust="none" font-stretch="normal" font-style="normal" font-variant="normal" font-weight="normal" letter-spacing="normal" text-anchor="start" transform="matrix(1.0629921,0,0,-1.0629921,-186.02362,789.27165)" word-spacing="normal" xml:space="preserve"><path id="path4239" fill="#000" stroke-width="0" d="m 474.16,436.39 0.04,0.16 0.04,0.16 0.04,0.15 0.04,0.14 0.04,0.14 0.04,0.13 0.05,0.12 0.05,0.11 0.05,0.11 0.06,0.11 0.07,0.09 0.07,0.09 0.08,0.09 0.08,0.08 0.1,0.07 0.1,0.07 0.12,0.06 0.12,0.06 0.14,0.05 0.15,0.05 0.17,0.04 0.08,0.02 0.09,0.02 0.1,0.02 0.1,0.02 0.1,0.01 0.1,0.02 0.11,0.01 0.12,0.01 0.12,0.02 0.12,0.01 0.13,0.01 0.13,0 0.13,0.01 0.14,0.01 0.15,0.01 0.15,0 0.16,0 0.16,0.01 0.16,0 0.17,0 0.18,0 0.18,0 c 1.19,0 1.6,0 1.6,0.96 0,0.59 -0.55,0.59 -0.75,0.59 -1.46,0 -5.15,-0.16 -6.58,-0.16 -1.5,0 -5.13,0.16 -6.63,0.16 -0.34,0 -1,0 -1,-1 0,-0.55 0.46,-0.55 1.39,-0.55 2.1,0 3.44,0 3.44,-0.95 0,-0.25 0,-0.34 -0.09,-0.8 l -6.72,-26.84 c -0.46,-1.84 -0.61,-2.34 -4.55,-2.34 -1.14,0 -1.59,0 -1.59,-1 0,-0.55 0.61,-0.55 0.75,-0.55 1.45,0 5.08,0.16 6.53,0.16 1.5,0 5.19,-0.16 6.67,-0.16 0.41,0 1,0 1,0.95 0,0.6 -0.41,0.6 -1.5,0.6 -0.89,0 -1.14,0 -2.14,0.09 -1.05,0.11 -1.23,0.3 -1.23,0.84 0,0.41 0.09,0.8 0.18,1.16 z"/></g></g><g id="g4275" transform="translate(676.77777,-235.18519)"><g id="g4277" fill="none" fill-opacity="1" fill-rule="evenodd" stroke="#000" stroke-dasharray="none" stroke-dashoffset="0" stroke-linecap="butt" stroke-linejoin="miter" stroke-miterlimit="10.433" stroke-opacity="1" font-size-adjust="none" font-stretch="normal" font-style="normal" font-variant="normal" font-weight="normal" letter-spacing="normal" text-anchor="start" transform="matrix(1.0629921,0,0,-1.0629921,-186.02362,789.27165)" word-spacing="normal" xml:space="preserve"><path id="path4279" fill="#000" stroke-width="0" d="m 481.38,423.14 0.47,0.11 0.48,0.12 0.48,0.14 0.48,0.15 0.49,0.16 0.48,0.18 0.48,0.19 0.47,0.2 0.47,0.22 0.47,0.23 0.46,0.24 0.45,0.25 0.43,0.27 0.43,0.28 0.42,0.29 0.4,0.3 0.39,0.31 0.37,0.32 0.36,0.34 0.33,0.35 0.32,0.35 0.29,0.37 0.28,0.38 0.25,0.39 0.22,0.4 0.2,0.41 0.17,0.42 0.15,0.43 0.11,0.44 0.08,0.45 0.05,0.46 0.02,0.47 c 0,4.28 -4.48,7.47 -11,7.47 l -14.2,0 c -1,0 -1.45,0 -1.45,-1 0,-0.55 0.45,-0.55 1.4,-0.55 0.1,0 1.05,0 1.89,-0.09 0.89,-0.11 1.35,-0.16 1.35,-0.8 0,-0.2 -0.05,-0.36 -0.21,-0.95 l -6.67,-26.75 c -0.5,-1.95 -0.59,-2.34 -4.53,-2.34 -0.91,0 -1.34,0 -1.34,-1 0,-0.55 0.59,-0.55 0.68,-0.55 1.41,0 4.89,0.16 6.29,0.16 1.39,0 4.93,-0.16 6.32,-0.16 0.41,0 1,0 1,1 0,0.55 -0.45,0.55 -1.39,0.55 -1.84,0 -3.25,0 -3.25,0.89 0,0.29 0.11,0.54 0.16,0.84 l 3.28,13.2 5.94,0 -0.05,1.11 -5.59,0 3.25,13 c 0.29,1.19 0.43,1.69 1.39,1.85 0.45,0.04 2.04,0.04 3.03,0.04 3.55,0 9.08,0 9.08,-4.93 0,-1.69 -0.8,-5.13 -2.75,-7.07 -1.28,-1.29 -3.92,-2.89 -8.41,-2.89 l 0.05,-1.11 c 4.53,0 5.42,-2.78 5.42,-4.53 0,-0.75 -0.39,-2.28 -0.69,-3.44 -0.36,-1.39 -0.79,-3.23 -0.79,-4.23 0,-5.37 5.96,-5.37 6.62,-5.37 4.23,0 5.97,5.03 5.97,5.73 0,0.59 -0.55,0.59 -0.59,0.59 -0.46,0 -0.55,-0.36 -0.65,-0.7 -1.25,-3.69 -3.39,-4.53 -4.54,-4.53 -1.64,0 -1.99,1.09 -1.99,3.05 0,1.53 0.3,4.07 0.5,5.67 0.1,0.7 0.21,1.64 0.21,2.34 0,3.83 -3.35,5.38 -4.69,5.88 z"/></g></g><path id="path5132" fill="none" fill-rule="evenodd" stroke="gray" stroke-dasharray="none" stroke-linecap="round" stroke-linejoin="miter" stroke-miterlimit="4" stroke-opacity="1" stroke-width="2" marker-end="url(#marker5474)" d="m 149.87037,107.62144 73.61111,0"/><path id="path5140" fill="none" fill-rule="evenodd" stroke="gray" stroke-dasharray="none" stroke-linecap="round" stroke-linejoin="miter" stroke-miterlimit="4" stroke-opacity="1" stroke-width="2.5" marker-end="url(#marker5424)" d="m 544.5647,108.10292 397.00282,0"/><rect id="rect4136-11-9" width="91.489" height="91.489" x="605.218" y="257.197" fill="none" fill-opacity="1" stroke="#666" stroke-dasharray="none" stroke-dashoffset="0" stroke-linecap="round" stroke-linejoin="round" stroke-miterlimit="4" stroke-opacity="1" stroke-width="4.4" opacity="1" rx="15.278" ry="15.278"/><rect id="rect4136-11-9-2" width="91.489" height="91.489" x="954.922" y="254.9" fill="none" fill-opacity="1" stroke="#666" stroke-dasharray="none" stroke-dashoffset="0" stroke-linecap="round" stroke-linejoin="round" stroke-miterlimit="4" stroke-opacity="1" stroke-width="4.4" opacity="1" rx="15.278" ry="15.278"/><g id="g4576" transform="matrix(3.6,0,0,3.6,699.58936,-1143.2137)"><g id="g4578" fill="none" fill-opacity="1" fill-rule="evenodd" stroke="#000" stroke-dasharray="none" stroke-dashoffset="0" stroke-linecap="butt" stroke-linejoin="miter" stroke-miterlimit="10.433" stroke-opacity="1" font-size-adjust="none" font-stretch="normal" font-style="normal" font-variant="normal" font-weight="normal" letter-spacing="normal" text-anchor="start" transform="matrix(0.27566913,0,0,-0.27566913,-48.242099,517.61131)" word-spacing="normal" xml:space="preserve"><path id="path4580" fill="#000" stroke-width="0" d="m 463.44,410.09 -0.04,-0.18 -0.05,-0.17 -0.04,-0.16 -0.05,-0.15 -0.04,-0.15 -0.05,-0.13 -0.04,-0.13 -0.05,-0.12 -0.06,-0.11 -0.06,-0.11 -0.06,-0.1 -0.07,-0.09 -0.08,-0.09 -0.09,-0.07 -0.09,-0.08 -0.11,-0.06 -0.11,-0.07 -0.12,-0.05 -0.14,-0.05 -0.15,-0.05 -0.16,-0.04 -0.09,-0.02 -0.08,-0.01 -0.1,-0.02 -0.1,-0.02 -0.1,-0.01 -0.1,-0.01 -0.11,-0.01 -0.11,-0.02 -0.12,-0.01 -0.12,-0.01 -0.13,0 -0.13,-0.01 -0.13,-0.01 -0.15,0 -0.14,-0.01 -0.15,0 -0.16,-0.01 -0.16,0 -0.16,0 -0.17,0 -0.18,0 -0.18,0 c -0.84,0 -1.39,0 -1.39,-0.96 0,-0.59 0.44,-0.59 1.39,-0.59 l 16.48,0 -0.89,1.55 -5.62,0 c -0.7,0 -0.8,0 -1.11,0.04 -0.48,0.05 -0.64,0.1 -0.64,0.5 0,0.14 0,0.25 0.25,1.14 l 6.83,27.36 c 0.43,1.74 0.54,1.89 2.68,1.89 l 5.33,0 c 4.89,0 9.02,-2.64 9.02,-9.22 0,-2.43 -1,-10.6 -5.24,-16.09 -1.43,-1.84 -5.37,-5.62 -11.5,-5.62 l 0.89,-1.55 c 10.36,0 20.19,10.51 20.19,21.42 0,7.03 -4.23,12.61 -11.72,12.61 l -16.73,0 c -0.95,0 -1.5,0 -1.5,-0.95 0,-0.6 0.45,-0.6 1.45,-0.6 0.64,0 1.55,-0.04 2.14,-0.09 0.8,-0.11 1.1,-0.25 1.1,-0.8 0,-0.2 -0.05,-0.36 -0.21,-0.95 z"/></g></g><g id="g4698" transform="matrix(3.6,0,0,3.6,349.942,-1141.3803)"><g id="g4700" fill="none" fill-opacity="1" fill-rule="evenodd" stroke="#000" stroke-dasharray="none" stroke-dashoffset="0" stroke-linecap="butt" stroke-linejoin="miter" stroke-miterlimit="10.433" stroke-opacity="1" font-size-adjust="none" font-stretch="normal" font-style="normal" font-variant="normal" font-weight="normal" letter-spacing="normal" text-anchor="start" transform="matrix(0.27566913,0,0,-0.27566913,-48.242099,517.61131)" word-spacing="normal" xml:space="preserve"><path id="path4702" fill="#000" stroke-width="0" d="m 493.54,436.39 0.04,0.16 0.04,0.16 0.04,0.15 0.04,0.14 0.04,0.14 0.04,0.13 0.04,0.12 0.05,0.11 0.05,0.11 0.05,0.11 0.06,0.09 0.07,0.09 0.07,0.09 0.08,0.08 0.09,0.07 0.09,0.07 0.11,0.06 0.11,0.06 0.13,0.05 0.14,0.05 0.15,0.04 0.16,0.04 0.09,0.02 0.09,0.02 0.09,0.01 0.1,0.02 0.1,0.01 0.1,0.01 0.11,0.02 0.11,0.01 0.12,0.01 0.12,0 0.13,0.01 0.13,0.01 0.13,0.01 0.14,0 0.14,0 0.15,0.01 0.15,0 0.16,0 0.16,0 0.17,0 c 1.3,0 1.69,0 1.69,1 0,0.55 -0.55,0.55 -0.7,0.55 -1.39,0 -4.97,-0.16 -6.38,-0.16 -1.44,0 -4.98,0.16 -6.42,0.16 -0.39,0 -0.95,0 -0.95,-1 0,-0.55 0.45,-0.55 1.4,-0.55 0.1,0 1.05,0 1.89,-0.09 0.89,-0.11 1.35,-0.16 1.35,-0.8 0,-0.2 -0.05,-0.31 -0.21,-0.95 l -2.98,-12.16 -15.2,0 2.95,11.71 c 0.44,1.79 0.59,2.29 4.17,2.29 1.3,0 1.71,0 1.71,1 0,0.55 -0.55,0.55 -0.71,0.55 -1.39,0 -4.98,-0.16 -6.37,-0.16 -1.44,0 -4.99,0.16 -6.42,0.16 -0.41,0 -0.96,0 -0.96,-1 0,-0.55 0.46,-0.55 1.39,-0.55 0.11,0 1.05,0 1.91,-0.09 0.89,-0.11 1.34,-0.16 1.34,-0.8 0,-0.2 -0.06,-0.36 -0.2,-0.95 l -6.67,-26.75 c -0.5,-1.95 -0.61,-2.34 -4.55,-2.34 -0.89,0 -1.34,0 -1.34,-1 0,-0.55 0.61,-0.55 0.7,-0.55 1.39,0 4.94,0.16 6.33,0.16 1.05,0 2.14,-0.07 3.19,-0.07 1.09,0 2.18,-0.09 3.23,-0.09 0.41,0 1,0 1,1 0,0.55 -0.45,0.55 -1.39,0.55 -1.84,0 -3.23,0 -3.23,0.89 0,0.29 0.09,0.54 0.14,0.84 l 3.39,13.66 15.18,0 c -2.09,-8.27 -3.23,-13 -3.43,-13.75 -0.49,-1.6 -1.44,-1.64 -4.53,-1.64 -0.75,0 -1.19,0 -1.19,-1 0,-0.55 0.59,-0.55 0.69,-0.55 1.4,0 4.93,0.16 6.32,0.16 1.05,0 2.14,-0.07 3.19,-0.07 1.11,0 2.2,-0.09 3.25,-0.09 0.39,0 0.99,0 0.99,1 0,0.55 -0.44,0.55 -1.4,0.55 -1.84,0 -3.23,0 -3.23,0.89 0,0.29 0.09,0.54 0.14,0.84 z"/></g></g><path id="path4764" fill="none" fill-rule="evenodd" stroke="gray" stroke-dasharray="none" stroke-linecap="butt" stroke-linejoin="miter" stroke-miterlimit="4" stroke-opacity="1" stroke-width="2" marker-end="url(#marker4782)" d="m 527.81481,159.88591 68.98148,86.57408"/><path id="path4766" fill="none" fill-rule="evenodd" stroke="gray" stroke-dasharray="none" stroke-linecap="butt" stroke-linejoin="miter" stroke-miterlimit="4" stroke-opacity="1" stroke-width="1.57" marker-end="url(#marker4792)" d="m 884.01851,304.33036 55.63265,0"/><path id="path4768" fill="none" fill-rule="evenodd" stroke="gray" stroke-dasharray="none" stroke-linecap="butt" stroke-linejoin="miter" stroke-miterlimit="4" stroke-opacity="1" stroke-width="2.5" marker-end="url(#marker5444)" d="M 686.53644,243.64584 938.98703,159.67331"/><path id="path5132-2" fill="none" fill-rule="evenodd" stroke="gray" stroke-dasharray="none" stroke-linecap="round" stroke-linejoin="miter" stroke-miterlimit="4" stroke-opacity="1" stroke-width="2" marker-end="url(#marker5474-4)" d="m 346.71748,106.18221 73.61111,0"/><text id="text4299" x="339.644" y="93.722" fill="#000" fill-opacity="1" stroke="none" stroke-linecap="butt" stroke-linejoin="miter" stroke-opacity="1" stroke-width="1" font-family="Sans" font-size="16.25" font-stretch="normal" font-style="normal" font-variant="normal" font-weight="normal" letter-spacing="0" text-anchor="start" word-spacing="0" writing-mode="lr-tb" xml:space="preserve" style="line-height:125%;-inkscape-font-specification:'Sans, Normal';text-align:start"><tspan id="tspan4301" x="339.644" y="93.722"><tspan id="tspan4303" x="339.644" y="93.722">symptoms</tspan></tspan></text><text id="text4287" x="741.082" y="195.864" fill="#000" fill-opacity="1" stroke="none" stroke-linecap="butt" stroke-linejoin="miter" stroke-opacity="1" stroke-width="1" font-family="Sans" font-size="16.25" font-stretch="normal" font-style="normal" font-variant="normal" font-weight="normal" letter-spacing="0" text-anchor="start" word-spacing="0" writing-mode="lr-tb" xml:space="preserve" style="line-height:125%;-inkscape-font-specification:'Sans, Normal';text-align:start"><tspan id="tspan4289" x="741.082" y="195.864"><tspan id="tspan4291" x="741.082" y="195.864">recovery</tspan></tspan></text><flowRoot id="flowRoot4991-8-4-7" fill="#000" fill-opacity="1" stroke="none" stroke-linecap="butt" stroke-linejoin="miter" stroke-opacity="1" stroke-width="1" font-family="Sans" font-size="16.25" font-stretch="normal" font-style="normal" font-variant="normal" font-weight="normal" letter-spacing="0" text-anchor="start" transform="translate(313.96165,250.33922)" word-spacing="0" writing-mode="lr-tb" xml:space="preserve" style="line-height:125%;-inkscape-font-specification:'Sans, Normal';text-align:start"><flowRegion id="flowRegion4993-1-6-1"><rect id="rect4995-9-2-2" width="112.037" height="27.778" x="156.944" y="-34.809"/></flowRegion><flowPara id="flowPara4997-9-8-2">deterioration</flowPara></flowRoot><text id="text4293" x="696.555" y="95.154" fill="#000" fill-opacity="1" stroke="none" stroke-linecap="butt" stroke-linejoin="miter" stroke-opacity="1" stroke-width="1" font-family="Sans" font-size="16.25" font-stretch="normal" font-style="normal" font-variant="normal" font-weight="normal" letter-spacing="0" text-anchor="start" word-spacing="0" writing-mode="lr-tb" xml:space="preserve" style="line-height:125%;-inkscape-font-specification:'Sans, Normal';text-align:start"><tspan id="tspan4295" x="696.555" y="95.154"><tspan id="tspan4297" x="696.555" y="95.154">recovery</tspan></tspan></text><text id="text4281" x="887.5" y="298.154" fill="#000" fill-opacity="1" stroke="none" stroke-linecap="butt" stroke-linejoin="miter" stroke-opacity="1" stroke-width="1" font-family="Sans" font-size="16.25" font-stretch="normal" font-style="normal" font-variant="normal" font-weight="normal" letter-spacing="0" text-anchor="start" word-spacing="0" writing-mode="lr-tb" xml:space="preserve" style="line-height:125%;-inkscape-font-specification:'Sans, Normal';text-align:start"><tspan id="tspan4283" x="887.5" y="298.154"><tspan id="tspan4285" x="887.5" y="298.154">death</tspan></tspan></text><rect id="rect4136-11-9-5" width="91.489" height="91.489" x="778.358" y="257.753" fill="none" fill-opacity="1" stroke="#666" stroke-dasharray="none" stroke-dashoffset="0" stroke-linecap="round" stroke-linejoin="round" stroke-miterlimit="4" stroke-opacity="1" stroke-width="4.4" opacity="1" rx="15.278" ry="15.278"/><path id="path4766-7" fill="none" fill-rule="evenodd" stroke="gray" stroke-dasharray="none" stroke-linecap="butt" stroke-linejoin="miter" stroke-miterlimit="4" stroke-opacity="1" stroke-width="1.57" marker-end="url(#marker4792-8)" d="m 712.63835,298.10837 55.63265,0"/><path id="path4766-6" fill="none" fill-rule="evenodd" stroke="gray" stroke-dasharray="none" stroke-linecap="butt" stroke-linejoin="miter" stroke-miterlimit="4" stroke-opacity="1" stroke-width="1.57" marker-end="url(#marker4792-2)" d="m 768.36235,309.55281 -55.63265,0"/><g id="g5526" transform="matrix(2.4,0,0,2.4,523.56474,-830.55497)"><g id="g5528" fill="none" fill-opacity="1" fill-rule="evenodd" stroke="#000" stroke-dasharray="none" stroke-dashoffset="0" stroke-linecap="butt" stroke-linejoin="miter" stroke-miterlimit="10.433" stroke-opacity="1" font-size-adjust="none" font-stretch="normal" font-style="normal" font-variant="normal" font-weight="normal" letter-spacing="normal" text-anchor="start" transform="matrix(0.42021971,0,0,-0.42021971,-73.53845,650.39577)" word-spacing="normal" xml:space="preserve"><path id="path5530" fill="#000" stroke-width="0" d="m 493.38,440.82 0,0.02 0,0.02 0,0.01 -0.01,0.02 0,0.02 0,0.02 -0.01,0.02 0,0.02 -0.01,0.02 -0.01,0.02 -0.01,0.02 0,0.02 -0.02,0.02 -0.01,0.02 -0.01,0.02 -0.01,0.02 -0.02,0.02 -0.02,0.02 -0.02,0.02 -0.02,0.02 -0.02,0.01 -0.02,0.02 -0.03,0.01 -0.02,0.02 -0.03,0.01 -0.01,0.01 -0.02,0 -0.01,0.01 -0.02,0 -0.02,0.01 -0.01,0 -0.02,0 -0.02,0.01 -0.02,0 -0.02,0 -0.02,0 -0.02,0 -0.02,0 -0.02,0 c -0.14,0 -0.2,-0.04 -0.75,-0.59 l -3.48,-3.84 c -0.44,0.7 -2.74,4.43 -8.27,4.43 -11.11,0 -22.33,-11.01 -22.33,-22.56 0,-8.23 5.89,-13.65 13.52,-13.65 4.33,0 8.11,1.98 10.75,4.28 4.64,4.09 5.48,8.62 5.48,8.76 0,0.5 -0.5,0.5 -0.59,0.5 -0.3,0 -0.55,-0.09 -0.66,-0.5 -0.43,-1.44 -1.59,-4.98 -5.03,-7.87 -3.43,-2.78 -6.58,-3.63 -9.15,-3.63 -4.49,0 -9.77,2.6 -9.77,10.36 0,2.85 1.05,10.91 6.02,16.74 3.04,3.54 7.73,6.03 12.15,6.03 5.1,0 8.03,-3.83 8.03,-9.61 0,-2 -0.15,-2.05 -0.15,-2.55 0,-0.5 0.54,-0.5 0.75,-0.5 0.64,0 0.64,0.11 0.89,1 z"/></g></g><path id="path4276" fill="none" fill-rule="evenodd" stroke="gray" stroke-dasharray="none" stroke-linecap="butt" stroke-linejoin="miter" stroke-miterlimit="4" stroke-opacity="1" stroke-width="2" marker-end="url(#marker5464)" d="m 482.1577,50.053027 0,-33.333334 -293.05555,0 0,81.481487"/><text id="text4830" x="177.064" y="7.454" fill="#000" fill-opacity="1" stroke="none" stroke-linecap="butt" stroke-linejoin="miter" stroke-opacity="1" stroke-width="1" font-family="Sans" font-size="16.25" font-stretch="normal" font-style="normal" font-variant="normal" font-weight="normal" letter-spacing="0" text-anchor="start" word-spacing="0" writing-mode="lr-tb" xml:space="preserve" style="line-height:125%;-inkscape-font-specification:'Sans, Normal';text-align:start"><tspan id="tspan4832" x="177.064" y="7.454"><tspan id="tspan4834" x="177.064" y="7.454">transmission modulated by interventions</tspan></tspan></text></g></svg>